<?xml version="1.0" encoding="UTF-8" standalone="no"?>
<svg
   version="1.0"
   width="677.29999"
   height="322"
   viewBox=""
   preserveAspectRatio="xMidYMid"
   id="svg320"
   sodipodi:docname="bmlogo.svg"
   inkscape:version="1.2.1 (9c6d41e410, 2022-07-14)"
   xmlns:inkscape="http://www.inkscape.org/namespaces/inkscape"
   xmlns:sodipodi="http://sodipodi.sourceforge.net/DTD/sodipodi-0.dtd"
   xmlns="http://www.w3.org/2000/svg"
   xmlns:svg="http://www.w3.org/2000/svg">
  <defs
     id="defs324" />
  <sodipodi:namedview
     id="namedview322"
     pagecolor="#ffffff"
     bordercolor="#000000"
     borderopacity="0.25"
     inkscape:showpageshadow="2"
     inkscape:pageopacity="0.0"
     inkscape:pagecheckerboard="0"
     inkscape:deskcolor="#d1d1d1"
     showgrid="false"
     inkscape:zoom="0.98333333"
     inkscape:cx="333.55932"
     inkscape:cy="135.25424"
     inkscape:window-width="1440"
     inkscape:window-height="837"
     inkscape:window-x="-8"
     inkscape:window-y="-8"
     inkscape:window-maximized="1"
     inkscape:current-layer="svg320" />
  <metadata
     id="metadata276">
Created by potrace 1.16, written by Peter Selinger 2001-2019
</metadata>
  <g
     transform="matrix(0.1,0,0,-0.1,-4,325)"
     fill="#000000"
     stroke="none"
     id="g318">
    <path
       d="m 42,2608 3,-643 h 620 620 l 2,360 c 1,330 0,357 -14,325 -19,-45 -15,-43 -60,-30 -50,15 -87,1 -109,-42 -14,-26 -18,-68 -22,-205 l -5,-173 h -78 -79 v 290 290 h 75 75 v -31 -31 l 41,37 c 38,34 45,36 92,33 29,-3 60,-8 70,-12 16,-8 17,7 17,233 v 241 H 665 40 Z m 605,365 c 74,-40 122,-129 108,-201 -10,-51 -41,-109 -70,-128 -28,-18 -33,-34 -10,-34 29,0 102,-83 115,-130 25,-92 -27,-206 -112,-252 -41,-22 -55,-23 -300,-26 l -258,-3 v 401 401 l 243,-3 c 228,-3 244,-4 284,-25 z"
       id="path278" />
    <path
       d="m 290,2769 v -91 l 124,3 c 115,4 126,6 150,28 18,17 26,35 26,58 0,76 -34,93 -191,93 H 290 Z"
       id="path280" />
    <path
       d="m 290,2441 v -101 h 113 c 172,0 217,21 217,100 -1,74 -39,93 -202,98 l -128,4 z"
       id="path282" />
    <path
       d="m 2610,2600 v -400 h 75 75 v 95 c 0,95 0,96 34,133 19,20 36,35 39,32 2,-3 35,-61 72,-128 38,-68 74,-126 80,-128 7,-3 44,-4 82,-2 l 71,3 -104,179 c -57,98 -104,181 -104,183 0,3 43,50 95,106 l 96,102 -88,3 -88,3 -40,-43 c -22,-24 -64,-70 -92,-103 l -53,-60 v 213 212 h -75 -75 z"
       id="path284" />
    <path
       d="m 3240,2930 v -70 h 75 75 v 70 70 h -75 -75 z"
       id="path286" />
    <path
       d="m 1511,2779 c -78,-23 -142,-87 -172,-174 -7,-22 -13,-79 -13,-127 0,-76 3,-93 30,-144 37,-74 94,-118 171,-134 104,-22 206,4 264,67 28,29 63,92 57,99 -2,2 -35,8 -74,13 -52,8 -70,7 -73,-2 -2,-6 -17,-24 -32,-39 -65,-65 -189,-5 -189,91 0,21 4,21 191,21 h 192 l -6,69 c -7,88 -39,161 -88,205 -61,56 -171,79 -258,55 z m 133,-119 c 30,-11 66,-65 66,-97 0,-23 -2,-23 -115,-23 -109,0 -115,1 -115,20 0,77 87,130 164,100 z"
       id="path288" />
    <path
       d="m 2130,2781 c -48,-10 -94,-36 -118,-65 -22,-28 -47,-84 -40,-91 2,-2 30,-8 63,-13 l 59,-10 33,35 c 32,34 34,35 94,31 68,-5 92,-24 87,-68 -3,-23 -11,-27 -83,-43 -164,-38 -188,-47 -226,-86 -115,-114 -9,-298 160,-278 53,6 119,35 140,61 20,24 28,20 35,-19 l 7,-35 h 74 74 l -14,41 c -11,30 -15,89 -15,213 -1,204 -7,240 -53,282 -51,47 -170,66 -277,45 z m 180,-366 c 0,-66 -46,-105 -124,-105 -38,0 -86,33 -86,59 0,36 26,54 106,71 109,25 104,26 104,-25 z"
       id="path290" />
    <path
       d="m 3808,2778 c -20,-5 -55,-25 -77,-45 l -41,-35 v 41 41 h -70 -70 v -290 -290 h 75 75 v 186 c 0,205 7,236 59,267 33,19 83,22 113,6 40,-21 48,-66 48,-269 v -190 h 75 75 v 218 c 0,119 -5,234 -10,254 -25,88 -138,136 -252,106 z"
       id="path292" />
    <path
       d="m 4368,2776 c -122,-44 -176,-146 -166,-312 4,-59 11,-92 31,-130 73,-143 236,-177 345,-72 l 32,32 v -71 c 0,-94 -22,-123 -98,-131 -67,-6 -100,3 -113,32 -9,20 -21,25 -68,30 -31,4 -68,9 -83,12 -26,5 -28,3 -28,-28 0,-36 29,-91 63,-119 36,-29 106,-44 207,-44 140,1 199,27 243,108 21,41 22,53 25,370 l 3,327 h -70 -71 v -41 -41 l -42,36 c -63,55 -135,69 -210,42 z m 178,-125 c 17,-10 38,-34 47,-54 24,-49 23,-157 -2,-205 -46,-90 -161,-97 -214,-13 -30,49 -32,180 -3,227 38,62 112,82 172,45 z"
       id="path294" />
    <path
       d="m 3240,2490 v -290 h 75 75 v 290 290 h -75 -75 z"
       id="path296" />
    <path
       d="m 2062,678 3,-643 778,-3 777,-2 v 645 645 h -780 -780 z m 337,355 c 50,-191 123,-461 127,-473 5,-12 79,249 139,488 5,21 9,22 130,22 h 125 V 670 270 h -80 -80 l -2,293 -3,292 -64,-260 c -35,-142 -68,-274 -73,-293 l -9,-33 -81,3 -81,3 -71,292 -71,293 -3,-295 -2,-295 h -80 -80 v 400 400 h 125 124 z M 3435,833 c 84,-44 132,-126 142,-243 l 6,-70 h -192 -191 v -26 c 0,-65 71,-122 136,-110 29,6 66,38 76,67 4,11 127,2 148,-11 17,-11 -20,-79 -63,-117 -56,-49 -114,-66 -204,-61 -121,7 -188,51 -235,153 -19,41 -23,67 -23,146 0,86 3,101 30,154 33,64 81,109 141,131 56,20 177,13 229,-13 z"
       id="path298" />
    <path
       d="m 3258,724 c -30,-16 -58,-61 -58,-94 0,-19 6,-20 110,-20 122,0 123,1 96,65 -24,57 -92,80 -148,49 z"
       id="path300" />
    <path
       d="M 4080,925 V 779 l -37,30 c -56,44 -117,58 -189,42 -76,-17 -145,-83 -168,-162 -33,-109 -16,-250 40,-331 76,-110 237,-127 331,-36 l 33,32 v -42 -42 h 70 70 v 400 400 h -75 -75 z m -69,-201 c 92,-47 92,-281 0,-328 -62,-32 -131,-12 -167,48 -27,44 -27,188 0,232 36,61 105,80 167,48 z"
       id="path302" />
    <path
       d="m 4390,1000 v -70 h 70 70 v 70 70 h -70 -70 z"
       id="path304" />
    <path
       d="m 5320,1000 v -70 h 75 75 v 70 70 h -75 -75 z"
       id="path306" />
    <path
       d="m 4865,851 c -143,-38 -223,-181 -196,-351 23,-142 107,-224 244,-237 132,-12 243,52 280,160 l 15,46 -56,6 c -31,4 -64,9 -74,11 -12,3 -19,-5 -28,-30 -18,-55 -55,-79 -113,-73 -84,8 -117,60 -117,185 0,112 44,172 127,172 36,0 50,-6 74,-29 16,-16 29,-37 29,-46 0,-13 6,-15 28,-11 15,3 48,8 75,12 26,3 47,8 47,11 0,12 -45,91 -64,111 -37,41 -93,63 -170,67 -39,3 -84,1 -101,-4 z"
       id="path308" />
    <path
       d="m 5899,851 c -40,-13 -72,-31 -101,-59 l -28,-26 v 42 42 h -70 -70 V 560 270 h 75 75 v 173 c 0,94 5,188 10,208 14,50 50,80 104,86 40,5 48,2 76,-25 l 30,-30 V 476 270 h 75 76 l -3,243 c -3,232 -4,243 -25,273 -13,17 -40,40 -60,50 -43,20 -125,28 -164,15 z"
       id="path310" />
    <path
       d="m 6450,845 c -64,-20 -114,-66 -147,-133 -25,-50 -28,-68 -28,-152 0,-113 24,-179 85,-234 51,-46 100,-61 195,-60 91,0 144,21 189,75 28,33 60,89 54,94 -2,2 -34,8 -73,14 -54,8 -71,8 -74,-2 -11,-32 -61,-67 -96,-67 -69,0 -109,34 -126,107 l -7,33 h 195 196 l -6,63 c -9,88 -23,130 -60,179 -62,81 -192,117 -297,83 z m 151,-121 c 17,-8 37,-30 45,-49 27,-65 26,-65 -102,-65 h -117 l 6,38 c 13,77 95,114 168,76 z"
       id="path312" />
    <path
       d="M 4390,560 V 270 h 70 70 v 290 290 h -70 -70 z"
       id="path314" />
    <path
       d="M 5320,560 V 270 h 75 75 v 290 290 h -75 -75 z"
       id="path316" />
  </g>
</svg>